# xmcd
#
# Track frame offsets:
#	150
#	23316
#	45549
#	66119
#	83539
#	98163
#	113813
#	126458
#	148439
#	183500
#
# Disc length: 2518 seconds
#
# Revision: 1
# Processed by: cddbd v1.5.2PL0 Copyright (c) Steve Scherf et al.
# Submitted via: audiograbber 1.83.01
#
DISCID=8309d40a
DTITLE=Melchior Alias... - Melchior Alias...
DYEAR=1969
DGENRE=Rock
TTITLE0=Chu Mnu en Métro Automatique
TTITLE1=Moto Perpetuo
TTITLE2=Itineraire 9
TTITLE3=Camping
TTITLE4=Triste Narcisse
TTITLE5=Une Facon De Parler
TTITLE6=L'Espace d'un Été
TTITLE7=Totor Melchior
TTITLE8=L'Aquarium
TTITLE9=Non, Rien De Mieux
EXTD=
EXTT0=
EXTT1=
EXTT2=
EXTT3=
EXTT4=
EXTT5=
EXTT6=
EXTT7=
EXTT8=
EXTT9=
PLAYORDER=
